Coordinates
version=1
nRows=7
nColumns=40
inDegrees=yes

Units are S.I. units (second, meters, Newtons, ...)
If the header above contains a line with 'inDegrees', this indicates whether rotational values are in degrees (yes) or radians (no).

endheader
time	pelvis_tilt	pelvis_list	pelvis_rotation	pelvis_tx	pelvis_ty	pelvis_tz	hip_flexion_r	hip_adduction_r	hip_rotation_r	knee_angle_r	knee_angle_r_beta	ankle_angle_r	subtalar_angle_r	mtp_angle_r	hip_flexion_l	hip_adduction_l	hip_rotation_l	knee_angle_l	knee_angle_l_beta	ankle_angle_l	subtalar_angle_l	mtp_angle_l	lumbar_extension	lumbar_bending	lumbar_rotation	arm_flex_r	arm_add_r	arm_rot_r	elbow_flex_r	pro_sup_r	wrist_flex_r	wrist_dev_r	arm_flex_l	arm_add_l	arm_rot_l	elbow_flex_l	pro_sup_l	wrist_flex_l	wrist_dev_l
      0.59000000	     10.84135923	     -2.85676516	     -5.14773537	     -0.58973497	      0.98342393	      0.22322860	      8.80155622	      4.02244824	     -7.41069181	      2.58330364	      0.04508715	      0.92235226	      0.00000000	      0.00000000	    -28.33552528	      2.37366050	     -6.56409873	      3.20341284	      0.05591010	      8.40308466	      0.00000000	      0.00000000	    -22.48170677	      5.92477098	     -3.54613693	     -3.34533464	     -5.11213161	      2.39607381	     30.69285107	     87.74593147	    -11.76845399	     -2.56683010	     -2.08212192	     -9.07979440	      3.82564827	     56.79768826	     89.19622630	     -5.31162180	      1.10450694
      0.60000000	     10.76895900	     -3.01399296	     -5.17103343	     -0.57791692	      0.98288454	      0.22405733	      8.61267955	      4.30860264	     -6.68465869	      2.45713336	      0.04288507	      0.61804083	      0.00000000	      0.00000000	    -28.52050188	      2.08960836	     -6.55622672	      4.21162916	      0.07350680	      8.12414847	      0.00000000	      0.00000000	    -22.40090734	      6.25068491	     -3.46593110	     -3.40027126	     -5.12977755	      2.46013957	     30.51978345	     87.75332301	    -11.73703330	     -2.53483429	     -2.14159118	     -8.90931532	      3.87644701	     56.73892046	     89.19867920	     -5.29308676	      1.08075752
      0.61000000	     10.74246332	     -3.27100965	     -5.20876990	     -0.56582897	      0.98258701	      0.22507476	      8.34480650	      4.67842219	     -6.06428287	      2.59204405	      0.04523970	      0.00072266	      0.00000000	      0.00000000	    -28.68741274	      1.68592644	     -6.79078874	      5.42046453	      0.09460495	      7.91030795	      0.00000000	      0.00000000	    -22.34608938	      6.64389550	     -3.31656645	     -3.46037035	     -5.17375515	      2.62009963	     30.30577226	     87.76174775	    -11.66251688	     -2.49265744	     -2.25773026	     -8.70268268	      3.90114509	     56.59076453	     89.19998599	     -5.26902902	      1.01338075
      0.62000000	     10.69451214	     -3.50882766	     -5.16448394	     -0.55352829	      0.98236431	      0.22596147	      8.13244794	      4.98493432	     -5.56593470	      3.07147997	      0.05360744	     -0.44615752	      0.00000000	      0.00000000	    -28.80586084	      1.25359451	     -6.73261471	      6.63465752	      0.11579662	      7.30085988	      0.00000000	      0.00000000	    -22.21981673	      7.06480400	     -3.22803399	     -3.55397207	     -5.23213597	      2.71424791	     30.11371599	     87.76376264	    -11.61529706	     -2.45486752	     -2.42147708	     -8.47892756	      3.90705883	     56.43833435	     89.20303485	     -5.25990075	      0.97368908
      0.63000000	     10.72403892	     -3.85263893	     -5.12690043	     -0.54101408	      0.98244600	      0.22700606	      7.82935919	      5.38074459	     -5.35296843	      3.73035610	      0.06510700	     -1.27380600	      0.00000000	      0.00000000	    -28.87928617	      0.68558599	     -7.10492989	      8.15821739	      0.14238775	      6.73839834	      0.00000000	      0.00000000	    -22.16771785	      7.55453743	     -3.09339926	     -3.62221867	     -5.31708933	      2.95261765	     29.85379673	     87.76693508	    -11.50053568	     -2.39332336	     -2.64518973	     -8.21974293	      3.86524984	     56.20767023	     89.20292493	     -5.24410957	      0.83361706
      0.64000000	     10.73506534	     -4.11704469	     -5.00120331	     -0.52824354	      0.98256106	      0.22814705	      7.55483122	      5.67396902	     -4.93840239	      4.57375893	      0.07982715	     -1.79234031	      0.00000000	      0.00000000	    -28.93531680	      0.14074439	     -6.99034607	      9.60295718	      0.16760322	      5.73035752	      0.00000000	      0.00000000	    -22.03679956	      7.97935001	     -3.03241089	     -3.76481388	     -5.33802342	      3.04033476	     29.66519867	     87.76898742	    -11.45758670	     -2.35352290	     -2.92233016	     -7.98828683	      3.81901930	     55.94291333	     89.19805291	     -5.25095047	      0.80400980
      0.65000000	     10.83418949	     -4.55008063	     -4.87790863	     -0.51536553	      0.98304482	      0.22902546	      7.17911598	      6.09277902	     -5.03638802	      5.48938089	      0.09580777	     -2.79953607	      0.00000000	      0.00000000	    -28.86991863	     -0.59823281	     -7.64078440	     11.52259941	      0.20110730	      4.68527575	      0.00000000	      0.00000000	    -22.05668935	      8.60058925	     -2.94613314	     -3.80134460	     -5.47984406	      3.36319889	     29.36684494	     87.76635676	    -11.29614564	     -2.25883371	     -3.28466367	     -7.63750993	      3.66824500	     55.70592985	     89.20220167	     -5.25663652	      0.52593144
